<svg fill="none" height="896" viewBox="0 0 1739 896" width="1739" xmlns="http://www.w3.org/2000/svg"><g fill="#000"><path d="m575.5 491.477v-200h37.5v81.75h26.25v-81.75h37.5v200h-37.5v-85.25h-26.25v85.25zm174.5 2.5c-18.333 0-31.625-3.875-39.875-11.625s-12.542-20.625-12.875-38.625c-.333-16.334-.5-33.792-.5-52.375 0-18.584.167-36.042.5-52.375.333-17.834 4.625-30.625 12.875-38.375s21.542-11.625 39.875-11.625 31.5 3.875 39.5 11.625 12.333 20.541 13 38.375c.667 16.666 1 34.208 1 52.625 0 18.416-.333 35.791-1 52.125-.667 18-5 30.875-13 38.625s-21.167 11.625-39.5 11.625zm0-30.5c9.667 0 14.667-4.25 15-12.75s.625-17.834.875-28c.25-10.167.375-20.625.375-31.375s-.125-21.209-.375-31.375c-.25-10.167-.542-19.5-.875-28-.333-8.334-5.333-12.5-15-12.5-9.833 0-14.917 4.166-15.25 12.5-.333 8.5-.583 17.833-.75 28-.167 10.166-.25 20.625-.25 31.375s.083 21.208.25 31.375c.167 10.166.417 19.5.75 28s5.417 12.75 15.25 12.75zm126.75 30.5c-18.333 0-31.375-3.875-39.125-11.625s-12.042-20.625-12.875-38.625c-.167-4-.208-8.542-.125-13.625.083-5.084.458-9.625 1.125-13.625h35.25c-.333 6.166-.542 12.208-.625 18.125-.083 5.916.125 11.291.625 16.125.833 8.5 6.083 12.75 15.75 12.75 4.833 0 8.417-1.084 10.75-3.25 2.333-2.167 3.75-5.334 4.25-9.5 1-8.5 1-16.917 0-25.25-.333-3.5-1.417-6.667-3.25-9.5-1.833-2.834-4.75-4.75-8.75-5.75l-20.5-5.25c-13-3.334-22.083-8.917-27.25-16.75-5.167-7.834-7.917-18-8.25-30.5-.167-6.667-.167-12.917 0-18.75.5-12 2.542-21.667 6.125-29 3.583-7.334 9.167-12.667 16.75-16 7.583-3.334 17.625-5 30.125-5 17.833 0 30.75 3.875 38.75 11.625s12.333 20.541 13 38.375c.167 3.666.208 8.083.125 13.25-.083 5.166-.292 9.916-.625 14.25h-36c.333-5.834.542-11.625.625-17.375s-.042-11.459-.375-17.125c-.167-4-1.625-7.084-4.375-9.25-2.75-2.167-6.458-3.25-11.125-3.25-5 0-8.708 1.083-11.125 3.25-2.417 2.166-3.875 5.25-4.375 9.25-1 8.5-1 17.083 0 25.75.333 3.333 1.5 6.375 3.5 9.125s5.083 4.625 9.25 5.625l17.75 4.25c14 3.333 23.667 9.083 29 17.25 5.333 8.166 8.25 18.666 8.75 31.5.167 2.833.208 5.875.125 9.125s-.208 6.291-.375 9.125c-.667 18-4.958 30.875-12.875 38.625s-21.125 11.625-39.625 11.625zm72.75-2.5v-200h48.25c18.67 0 32.13 3.791 40.37 11.375 8.26 7.583 12.71 20.041 13.38 37.375.33 7 .5 13.5.5 19.5s-.17 12.5-.5 19.5c-.67 17.333-5.12 29.791-13.38 37.375-8.24 7.583-21.7 11.375-40.37 11.375h-10.75v63.5zm37.5-96.5h10.75c10.33 0 15.75-4.584 16.25-13.75.33-6.167.5-13.334.5-21.5 0-8.167-.17-15.334-.5-21.5-.5-9.167-5.92-13.75-16.25-13.75h-10.75zm79.75 96.5v-200h37.5v200zm84.75 0v-167h-32.25v-33h101.75v33h-32v167zm79.5 0 27.75-200h59l27.75 200h-38.5l-4.25-41.75h-29l-4.25 41.75zm46.25-74.75h22l-4.5-44.25-3-48h-7l-3 48zm83.25 74.75v-200h37.5v167h49.25v33zm101.75 0v-200h37.5v200zm84.75 0v-167h-32.25v-33h101.75v33h-32v167zm117 0v-47.75l-2.75-11.25-34.75-141h38.25l10.75 48.5 3.75 58.75h7l3.75-58.75 10.75-48.5h38.25l-34.75 140.75-2.75 11.5v47.75z"/><path d="m597.5 737.477v-185h-25.5v-15h67.5v15h-25.25v185zm239.25 0 21.5-200h31l21.25 200h-17l-5.25-58h-29.25l-5.25 58zm23.75-73h26.25l-4-43.75-5.5-68.25h-7l-5.75 68.5zm261.5 73v-200h16.5v185h40v15zm267.25 0v-200h17.5l-.25 42.25-2.5 56.25h4.25l16-55.75 13.75-42.75h18.25l-29.75 89.5 33 110.5h-17.25l-26.25-90.5-10 26v64.5zm311.75 1.75c-11.5 0-19.75-2.542-24.75-7.625-5-5.084-7.75-13.542-8.25-25.375-.17-7.667-.25-14.459-.25-20.375 0-5.917.25-12.792.75-20.625h15.75c-.33 7.333-.5 14.666-.5 22 0 7.333.17 14.5.5 21.5.33 5.666 1.75 9.791 4.25 12.375 2.5 2.583 6.67 3.875 12.5 3.875 5.5 0 9.46-1.292 11.88-3.875 2.41-2.584 3.79-6.709 4.12-12.375.33-4.667.5-8.834.5-12.5 0-3.667-.04-7.459-.12-11.375-.09-3.917-.21-8.459-.38-13.625-.17-6.334-1.04-11.584-2.62-15.75-1.59-4.167-4.71-6.834-9.38-8l-13.25-3.5c-9.67-2.334-16-6.584-19-12.75-3-6.167-4.67-15-5-26.5-.17-5.5-.21-11.417-.13-17.75.09-6.334.21-12.5.38-18.5.17-11.667 2.75-20.042 7.75-25.125 5-5.084 13.42-7.625 25.25-7.625 11 0 18.96 2.541 23.88 7.625 4.91 5.083 7.62 13.458 8.12 25.125v17.125c0 6.75-.08 13.791-.25 21.125h-16c.17-6.667.25-13.417.25-20.25 0-6.834-.08-13.667-.25-20.5-.33-10.667-5.67-16-16-16-5.67 0-9.71 1.291-12.13 3.875-2.41 2.583-3.79 6.625-4.12 12.125-.33 6.5-.5 12.958-.5 19.375 0 6.416.17 12.875.5 19.375.17 7.5 1.04 13.083 2.62 16.75 1.59 3.666 4.88 6.166 9.88 7.5l12.25 3c9.83 2.333 16.29 6.666 19.37 13 3.09 6.333 4.8 15.083 5.13 26.25.17 5.166.25 9.5.25 13s-.04 6.916-.12 10.25c-.09 3.333-.13 7.25-.13 11.75-.5 11.833-3.25 20.291-8.25 25.375-5 5.083-13.17 7.625-24.5 7.625z"/><path clip-rule="evenodd" d="m322.948 29.8253h-173.895c-10.902 0-19.873 8.976-19.873 19.8835v124.2872h-29.8111v-124.2872c0-27.2668 22.4281-49.7088 49.6841-49.7088h173.895c27.257 0 49.685 22.442 49.685 49.7088v124.2872h-29.811v-124.2872c0-10.9075-8.971-19.8835-19.874-19.8835zm49.685 825.1807c0 22.488-18.497 40.994-40.974 40.994-22.478 0-40.975-18.506-40.975-40.994zm-273.2641 0h81.9481c0 22.488-18.496 40.994-40.974 40.994s-40.9741-18.506-40.9741-40.994zm372.6311-410.435c-14.315-6.672-47.144-6.515-124.349 21.599l-81.765 29.774c-2.628.957-5.543.76-8.019-.541l-121.832-64.031c-2.477-1.305-5.391-1.5-8.02-.542l-17.961 6.54c-.783.284-1.308 1.033-1.308 1.868 0 .462.159.906.451 1.262l69.223 84.478c.291.355.45.801.45 1.26 0 .834-.524 1.584-1.308 1.869l-60.358 21.979c-2.126.774-4.453.8-6.594.072l-108.55484-36.881c-.66484-.226-1.357588-.382-2.05516-.462v-209.576c0-54.538 44.8566-99.418 99.3689-99.418h273.2641c54.513 0 99.367 44.88 99.367 99.418zm-67.277 55.337c23.452-7.619 46.015-17.763 67.277-30.252v256.107c0 54.538-44.854 99.417-99.367 99.417h-273.2641c-54.5123 0-99.3689-44.879-99.3689-99.417v-189.329l41.7133 44.995c8.3695 9.028 19.8001 14.63 32.0597 15.713l40.464 3.573c7.239.639 14.531-.319 21.361-2.805z" fill-rule="evenodd"/></g></svg>